<?xml version="1.0" encoding="utf-8"?>
<!-- Generator: Adobe Illustrator 19.2.1, SVG Export Plug-In . SVG Version: 6.00 Build 0)  -->
<svg version="1.1" id="Layer_1" xmlns="http://www.w3.org/2000/svg" xmlns:xlink="http://www.w3.org/1999/xlink" x="0px" y="0px"
	 viewBox="0 0 85 85" style="enable-background:new 0 0 85 85;" xml:space="preserve">
<style type="text/css">
	.st0{fill:#FFFFFF;}
	.st1{fill:#5382A1;}
	.st2{fill:#E76F00;}
</style>
<g>
	<path class="st0" d="M42.5,0C66,0,85,19,85,42.5S66,85,42.5,85S0,66,0,42.5S19,0,42.5,0z"/>
</g>
<path class="st1" d="M36.8,52.9c0,0-1.5,0.9,1.1,1.2c3.2,0.4,4.8,0.3,8.4-0.4c0,0,0.9,0.6,2.2,1.1C40.5,58.2,30.6,54.7,36.8,52.9"/>
<path class="st1" d="M35.8,48.5c0,0-1.7,1.3,0.9,1.6c3.4,0.4,6.1,0.4,10.8-0.5c0,0,0.6,0.7,1.7,1C39.6,53.3,29,50.8,35.8,48.5"/>
<path class="st2" d="M43.9,41c1.9,2.2-0.5,4.3-0.5,4.3s4.9-2.6,2.7-5.8c-2.1-3-3.7-4.5,5.1-9.6C51.2,29.9,37.3,33.4,43.9,41"/>
<path class="st1" d="M54.4,56.2c0,0,1.1,0.9-1.3,1.7c-4.6,1.4-19,1.8-23,0.1c-1.4-0.6,1.3-1.5,2.1-1.7c0.9-0.2,1.4-0.2,1.4-0.2
	c-1.6-1.1-10.4,2.2-4.4,3.2C45.3,61.9,58.6,58.1,54.4,56.2"/>
<path class="st1" d="M37.5,43.9c0,0-7.3,1.7-2.6,2.4c2,0.3,6,0.2,9.7-0.1c3-0.3,6.1-0.8,6.1-0.8s-1.1,0.5-1.8,1
	c-7.5,2-21.9,1-17.7-1C34.7,43.7,37.5,43.9,37.5,43.9"/>
<path class="st1" d="M50.7,51.3c7.6-3.9,4.1-7.7,1.6-7.2c-0.6,0.1-0.9,0.2-0.9,0.2s0.2-0.3,0.6-0.5c4.8-1.7,8.6,5-1.6,7.7
	C50.5,51.5,50.6,51.4,50.7,51.3"/>
<path class="st2" d="M46.1,21.7c0,0,4.2,4.2-4,10.7c-6.6,5.2-1.5,8.1,0,11.5c-3.8-3.5-6.6-6.5-4.8-9.3
	C40.1,30.4,47.8,28.3,46.1,21.7"/>
<path class="st1" d="M38.3,61.9c7.3,0.5,18.4-0.3,18.7-3.7c0,0-0.5,1.3-6,2.3c-6.2,1.2-13.9,1-18.4,0.3
	C32.5,60.9,33.5,61.6,38.3,61.9"/>
</svg>
